<svg width="140" height="140" viewBox="0 0 140 140" fill="none" xmlns="http://www.w3.org/2000/svg">
<path d="M85.042 83.8874H55.6202L42.4776 60.3875L23.5824 83.8874H0V8.70504H25.7959V49.5973L56.8315 8.70504H84.0359L58.8279 40.0592L63.6217 48.0822C63.602 48.2038 63.5823 48.3216 63.5625 48.4394C63.531 48.6081 63.5073 48.773 63.4836 48.9418C63.4323 49.2715 63.3889 49.5973 63.3495 49.927C63.3219 50.1507 63.2982 50.3745 63.2785 50.5982C63.2587 50.7788 63.2429 50.9554 63.2311 51.1359C63.1877 51.6737 63.1601 52.2075 63.1483 52.7413C63.097 54.6882 63.2469 56.5998 63.5901 58.4681C63.6296 58.7036 63.677 58.9391 63.7282 59.1707C63.8032 59.5318 63.8861 59.893 63.9808 60.2501C64.0202 60.4268 64.0676 60.6073 64.1228 60.784C64.2175 61.1411 64.324 61.4944 64.4384 61.8477C64.4937 62.0243 64.5529 62.2009 64.616 62.3776C64.7304 62.7308 64.8606 63.0802 64.9948 63.4256C65.3854 64.4304 65.8312 65.4117 66.3362 66.3695C66.4625 66.6128 66.5888 66.8522 66.7229 67.0877C66.8531 67.3233 66.9912 67.5588 67.1293 67.7904C67.2911 68.0612 67.4568 68.332 67.6304 68.5989C67.7487 68.7913 67.875 68.9797 68.0013 69.1681C68.0683 69.2741 68.1394 69.3761 68.2143 69.4821C68.3366 69.6627 68.4629 69.8393 68.5931 70.0159C68.601 70.0316 68.6128 70.0473 68.6286 70.0669C68.7193 70.1965 68.814 70.3221 68.9087 70.4477C69.1691 70.8009 69.4414 71.1503 69.7255 71.4957C69.8123 71.6017 69.903 71.7077 69.9898 71.8136C70.1121 71.9628 70.2344 72.1119 70.3686 72.2572C70.483 72.3946 70.6053 72.528 70.7237 72.6615C70.846 72.8028 70.9722 72.9441 71.1064 73.0815C71.2011 73.1835 71.2997 73.2895 71.3984 73.3915C71.5562 73.5642 71.7219 73.737 71.8916 73.9057C72.294 74.3061 72.7083 74.7065 73.1383 75.099C73.5684 75.4915 74.0064 75.8762 74.464 76.253C74.614 76.3786 74.7678 76.5042 74.9217 76.6298C75.0756 76.7554 75.2334 76.8771 75.3873 77.0027C75.5451 77.1244 75.7029 77.246 75.8647 77.3677C76.1685 77.5993 76.4763 77.823 76.788 78.0468C77.0997 78.2705 77.4192 78.4903 77.7428 78.7062C78.0426 78.9064 78.3464 79.1026 78.6542 79.2989C78.7213 79.3421 78.7883 79.3853 78.8554 79.4245C79.0488 79.5462 79.246 79.6679 79.4433 79.7856C79.5735 79.868 79.7037 79.9426 79.8379 80.0211C80.1377 80.1978 80.4415 80.3705 80.7493 80.5432C80.7651 80.551 80.7848 80.5628 80.8006 80.5706C80.9978 80.6805 81.1991 80.7905 81.4003 80.8964C81.4634 80.9318 81.5226 80.9632 81.5818 80.9906C81.7909 81.1045 82.004 81.2144 82.217 81.3204C82.3314 81.3832 82.4498 81.442 82.5682 81.497C82.7299 81.5794 82.8917 81.6618 83.0574 81.7403C83.085 81.7521 83.1087 81.7678 83.1363 81.7796C83.4086 81.9091 83.6808 82.0387 83.9609 82.1643C83.9846 82.18 84.0083 82.1917 84.032 82.1996L85.042 83.8874Z" fill="#062F1A"/>
<path d="M127.681 6.25182C127.022 7.44114 126.158 8.32823 125.109 8.88953C123.823 9.57643 122.386 9.74128 120.844 9.37624C119.688 9.10148 118.453 8.52841 117.17 7.6688C115.959 6.8563 114.681 5.96136 113.367 4.9997C112.089 4.06944 110.656 3.1745 109.11 2.34237C107.603 1.52594 105.953 0.905767 104.225 0.497551C99.4156 -0.636818 95.5687 0.163913 92.4596 2.94685C90.183 4.984 88.2576 7.82974 86.707 11.4409C86.2099 12.5949 85.7522 13.8274 85.334 15.1384L97.2732 17.9606C97.9321 16.7712 98.8001 15.8841 99.8496 15.3229C100.694 14.8715 101.59 14.6477 102.548 14.6477C103.053 14.6477 103.578 14.7105 104.107 14.8361C105.255 15.107 106.49 15.6604 107.776 16.4808C108.995 17.2579 110.286 18.1411 111.611 19.1106C112.89 20.0487 114.33 20.9633 115.872 21.8308C117.368 22.6707 119.001 23.3027 120.733 23.7148C125.543 24.8492 129.41 24.0524 132.554 21.2695C132.972 20.8966 133.383 20.4962 133.777 20.0684C136.227 17.4228 138.192 13.7371 139.632 9.07793L127.681 6.25182Z" fill="#062F1A"/>
<path d="M137.664 47.5326C136.168 43.686 133.797 40.1965 130.593 37.131C129.623 36.1929 128.569 35.2979 127.441 34.4423C122.576 30.7526 116.421 28.0089 109.141 26.2858C101.862 24.5666 95.1228 24.2604 89.1099 25.3791C83.1403 26.4899 78.0703 28.8842 74.0616 32.4954C70.049 36.0908 67.3226 40.8363 65.9496 46.5945C65.6103 48.0076 65.3735 49.4089 65.2433 50.7866C64.8409 54.9551 65.3696 58.9548 66.8373 62.7151C68.7904 67.7393 72.2309 72.1473 77.0602 75.8094C78.6305 76.9988 80.335 78.09 82.1657 79.0791C86.0126 81.1634 90.4277 82.8001 95.3596 83.9659C99.751 85.0021 103.945 85.5242 107.898 85.532C110.503 85.532 113.008 85.3162 115.395 84.8726C121.365 83.7618 126.423 81.3675 130.443 77.7563C130.637 77.5836 130.83 77.407 131.019 77.2264C131.536 76.7318 132.029 76.2216 132.503 75.6878C135.395 72.4142 137.419 68.4145 138.532 63.7553C139.909 58.001 139.613 52.5411 137.664 47.5326ZM106.616 68.0298C105.661 68.2614 104.643 68.3752 103.558 68.3752C102.201 68.3752 100.749 68.1946 99.2183 67.8335C96.5275 67.1977 94.2864 66.1457 92.5661 64.7091C90.8064 63.2411 89.6149 61.3963 89.0349 59.2257C88.4667 57.0982 88.5101 54.6607 89.1454 51.9759C89.7727 49.3578 90.8341 47.1951 92.3097 45.5465C93.8011 43.8705 95.695 42.7557 97.94 42.2298C100.13 41.7195 102.6 41.7823 105.287 42.4182C108.044 43.0697 110.293 44.1256 111.99 45.5544C113.718 47.0184 114.886 48.8594 115.466 51.0221C116.034 53.1535 115.995 55.5949 115.356 58.2758C114.728 60.8899 113.671 63.0527 112.195 64.7013C110.7 66.3812 108.822 67.4999 106.616 68.0298Z" fill="#062F1A"/>
<path d="M103.708 110.288V139.632H80.5836V113.55C80.5836 110.653 79.8694 108.42 78.4451 106.85C77.0168 105.279 74.9691 104.494 72.2979 104.494C70.4199 104.494 68.7943 104.903 67.4292 105.715C66.064 106.532 65.0303 107.709 64.3359 109.248C63.6375 110.786 63.2863 112.643 63.2863 114.818V139.632H40.1655V113.55C40.1655 110.653 39.4514 108.42 38.027 106.85C36.5988 105.279 34.551 104.494 31.8799 104.494C29.9979 104.494 28.3763 104.903 27.0111 105.715C25.646 106.532 24.6122 107.709 23.9139 109.248C23.2155 110.786 22.8683 112.643 22.8683 114.818V139.632H0V87.5574H23.5824V97.2211C23.5824 97.2211 23.5785 97.2094 23.5824 97.2054C25.9182 93.4294 25.9932 90.6073 29.3311 88.735C32.669 86.8666 36.2516 85.9285 40.0748 85.9285C44.9909 85.9285 49.1771 86.9412 52.6374 88.9626C56.0976 90.9841 58.7371 93.822 60.556 97.4763C60.631 97.6254 60.702 97.7746 60.773 97.9237C60.9111 97.6804 61.0532 97.4409 61.1952 97.2054C63.4994 93.4294 66.3205 90.6073 69.6584 88.735C72.7004 87.0315 75.9476 86.1012 79.396 85.952C79.7274 85.9363 80.0628 85.9285 80.4021 85.9285C85.3182 85.9285 89.5202 86.9412 93.012 88.9626C94.3535 89.7398 95.5687 90.6387 96.6656 91.6592C98.4174 93.2881 99.8535 95.2272 100.974 97.4763C102.797 101.131 103.708 105.401 103.708 110.288Z" fill="#062F1A"/>
<path d="M131.019 79.8563V139.632H107.898V87.4946H107.969C110.664 87.4946 113.284 87.263 115.758 86.7999C121.724 85.693 126.853 83.3575 131.019 79.8563Z" fill="#062F1A"/>
</svg>
