<?xml version="1.0" encoding="UTF-8"?>
<svg xmlns="http://www.w3.org/2000/svg" viewBox="0 0 1000 1000">
  <g id="a" data-name="fond">
    <rect width="1000" height="1000" style="fill: #d5ee6e;"/>
  </g>
  <g id="c" data-name="~2">
    <g>
      <path d="M829.24,934.47h-225.82l-100.91-181.84-145.03,181.84h-180.97V352.7h197.99v316.43l238.21-316.43h208.81l-193.51,242.62,36.82,62.08c24.8,47.08,133.42,236.31,156.66,264.01l7.75,13.06Z" style="fill: #062f1a;"/>
      <path d="M612.71,70.39c-.79,6.59-5.28,39.43-27.47,49.16-14.33,6.29-30.41.47-60.58-10.45-13.43-4.86-13.49-5.71-33.03-14.12-18.07-7.78-37.91-14.71-58.9-20.56-20.57-5.75-42.21-8.73-64.3-8.88-40.69-.29-73.87,8.61-100.3,27.07-7.21,5.04-20.02,15.06-35.13,35.55-42.67,57.85-53.36,130.99-56.5,169.65h197.99c-.19-5.99.21-20.51,9.87-33.99,1.83-2.56,4.72-6.52,9.69-10.18,18.37-13.54,44.2-7.48,62.22-3.12,17.15,4.16,18.75,6.15,53.76,21.39,18.1,7.88,38.03,15.03,59.17,21.31,20.44,6.08,41.97,9.23,64.08,9.44,40.59.29,73.81-8.57,100.39-26.96,5.44-3.77,19.7-14.27,35.66-35.75,43.54-58.6,50.83-133.21,52.17-169.55h-208.81Z" style="fill: #062f1a;"/>
    </g>
  </g>
</svg>